<?xml version="1.0" encoding="utf-8"?>
<!-- Generator: Adobe Illustrator 18.1.1, SVG Export Plug-In . SVG Version: 6.00 Build 0)  -->
<svg version="1.1" id="Layer_1" xmlns:sketch="http://www.bohemiancoding.com/sketch/ns"
	 xmlns="http://www.w3.org/2000/svg" xmlns:xlink="http://www.w3.org/1999/xlink" x="0px" y="0px" viewBox="-356 258.3 80 80"
	 enable-background="new -356 258.3 80 80" xml:space="preserve">
<title>Avatar</title>
<desc>Created with Sketch.</desc>
<g id="OneAsk---FRP-v1" sketch:type="MSPage">
	<g id="FRP---Default-Avatar-3" transform="translate(-117.000000, -540.000000)" sketch:type="MSArtboardGroup">
		<g id="Avatar" transform="translate(119.000000, 542.000000)" sketch:type="MSLayerGroup">
			<g id="Group-3">
				<g id="Clip-2">
				</g>
				<g id="Fill-1-Clipped" sketch:type="MSShapeGroup">
					<circle id="Oval-582" fill="#CCCCCC" cx="-318" cy="296.3" r="40"/>
				</g>
			</g>
			<path id="Fill-4" sketch:type="MSShapeGroup" fill="#F1F1F1" d="M-300.4,311.7c3.2,2,5.7,4.5,7.4,7.3
				C-294.7,316.2-297.2,313.7-300.4,311.7"/>
			<path id="Fill-6" sketch:type="MSShapeGroup" fill="#F1F1F1" d="M-317,307C-317,307-317,307-317,307C-317,307-317,307-317,307
				C-317,307-317,307-317,307C-317,307-317,307-317,307"/>
			<path id="Fill-8" sketch:type="MSShapeGroup" fill="#F1F1F1" d="M-302.9,310.4c0.9,0.4,1.7,0.9,2.5,1.4
				C-301.2,311.2-302,310.8-302.9,310.4"/>
			<path id="Fill-10" sketch:type="MSShapeGroup" fill="#F1F1F1" d="M-313.3,307.3c-0.2,0-0.3,0-0.5-0.1c-0.1,0-0.2,0-0.3,0
				c0.1,0,0.2,0,0.3,0C-313.6,307.2-313.4,307.2-313.3,307.3"/>
			<path id="Fill-12" sketch:type="MSShapeGroup" fill="#F1F1F1" d="M-315.4,307c0.2,0,0.4,0,0.6,0
				C-315,307.1-315.2,307.1-315.4,307c-0.1,0-0.1,0-0.2,0c-0.2,0-0.5,0-0.7,0c0.2,0,0.5,0,0.7,0C-315.5,307-315.5,307-315.4,307"/>
			<path id="Fill-14" sketch:type="MSShapeGroup" fill="#F1F1F1" d="M-318,306.9c-2.1,0-4.3,0.2-6.6,0.6
				c-8.2,1.5-15.1,5.8-18.4,11.5c6.1,7,15,11.3,25,11.3h0v-5V306.9L-318,306.9z"/>
			<path id="Fill-16" sketch:type="MSShapeGroup" fill="#FFFFFF" d="M-300.4,311.7c-0.8-0.5-1.6-1-2.5-1.4c-2.6-1.3-5.5-2.2-8.6-2.8
				c-0.3,0-0.5-0.1-0.8-0.1c-0.1,0-0.1,0-0.2,0c-0.2,0-0.4-0.1-0.6-0.1c-0.1,0-0.2,0-0.3,0c-0.2,0-0.3,0-0.5-0.1c-0.1,0-0.2,0-0.3,0
				c-0.2,0-0.3,0-0.5-0.1c-0.1,0-0.2,0-0.3,0c-0.2,0-0.4,0-0.6,0c-0.1,0-0.1,0-0.2,0c-0.2,0-0.5,0-0.7,0c-0.1,0-0.2,0-0.3,0
				c-0.1,0-0.2,0-0.3,0c0,0,0,0,0,0c0,0,0,0-0.1,0c-0.3,0-0.6,0-1,0v18.5v5c1.2,0,2.5-0.1,3.7-0.2c0.6-0.1,1.2-0.1,1.8-0.2
				c7.7-1.3,14.6-5.2,19.5-10.9l0,0C-294.7,316.2-297.2,313.7-300.4,311.7"/>
			<path id="Fill-18" sketch:type="MSShapeGroup" fill="#F1F1F1" d="M-318,303.3v-29.4c-8.1,0-14.7,6.6-14.7,14.7
				C-332.7,296.8-326.1,303.3-318,303.3"/>
			<path id="Fill-20" sketch:type="MSShapeGroup" fill="#FFFFFF" d="M-303.3,288.6c0-8.1-6.6-14.7-14.7-14.7v29.4
				C-309.9,303.3-303.3,296.8-303.3,288.6"/>
		</g>
	</g>
</g>
</svg>
